<svg width="600" height="200" xmlns="http://www.w3.org/2000/svg">
  <!-- Train body -->
  <rect x="20" y="80" width="180" height="60" fill="#2b4c7e" stroke="#000" stroke-width="2"/>
  <rect x="200" y="80" width="180" height="60" fill="#2b4c7e" stroke="#000" stroke-width="2"/>
  <rect x="380" y="80" width="180" height="60" fill="#2b4c7e" stroke="#000" stroke-width="2"/>

  <!-- Windows -->
  <rect x="40" y="90" width="30" height="20" fill="#87ceeb" stroke="#000" stroke-width="1"/>
  <rect x="75" y="90" width="30" height="20" fill="#87ceeb" stroke="#000" stroke-width="1"/>
  <rect x="110" y="90" width="30" height="20" fill="#87ceeb" stroke="#000" stroke-width="1"/>
  <rect x="145" y="90" width="30" height="20" fill="#87ceeb" stroke="#000" stroke-width="1"/>

  <rect x="220" y="90" width="30" height="20" fill="#87ceeb" stroke="#000" stroke-width="1"/>
  <rect x="255" y="90" width="30" height="20" fill="#87ceeb" stroke="#000" stroke-width="1"/>
  <rect x="290" y="90" width="30" height="20" fill="#87ceeb" stroke="#000" stroke-width="1"/>
  <rect x="325" y="90" width="30" height="20" fill="#87ceeb" stroke="#000" stroke-width="1"/>

  <rect x="400" y="90" width="30" height="20" fill="#87ceeb" stroke="#000" stroke-width="1"/>
  <rect x="435" y="90" width="30" height="20" fill="#87ceeb" stroke="#000" stroke-width="1"/>
  <rect x="470" y="90" width="30" height="20" fill="#87ceeb" stroke="#000" stroke-width="1"/>
  <rect x="505" y="90" width="30" height="20" fill="#87ceeb" stroke="#000" stroke-width="1"/>

  <!-- Doors -->
  <rect x="140" y="80" width="20" height="60" fill="#cccccc" stroke="#000" stroke-width="1"/>
  <rect x="320" y="80" width="20" height="60" fill="#cccccc" stroke="#000" stroke-width="1"/>
  <rect x="500" y="80" width="20" height="60" fill="#cccccc" stroke="#000" stroke-width="1"/>

  <!-- Wheels -->
  <circle cx="50" cy="150" r="10" fill="#333"/>
  <circle cx="170" cy="150" r="10" fill="#333"/>

  <circle cx="230" cy="150" r="10" fill="#333"/>
  <circle cx="350" cy="150" r="10" fill="#333"/>

  <circle cx="410" cy="150" r="10" fill="#333"/>
  <circle cx="530" cy="150" r="10" fill="#333"/>
</svg>
